<svg width="100" height="76" viewBox="0 0 100 76" fill="none" xmlns="http://www.w3.org/2000/svg">
<rect x="1.5" y="1.5" width="97" height="73" fill="black" stroke="white" stroke-width="3"/>
<path d="M37.5312 58.4375C37.4688 58.7917 37.3229 59.0417 37.0938 59.1875C36.8854 59.3542 36.6875 59.5833 36.5 59.875H36.375C36.1667 59.875 35.9583 59.8958 35.75 59.9375C35.5625 59.9792 35.3646 60.0312 35.1562 60.0938C35.0521 60.0521 34.9271 60.0208 34.7812 60C34.6354 59.9792 34.5417 59.9062 34.5 59.7812C34.3333 59.8646 34.1042 59.9062 33.8125 59.9062C33.3333 59.9062 32.875 59.7708 32.4375 59.5C32.0208 59.2292 31.5833 59.0208 31.125 58.875C31 58.625 30.8438 58.3958 30.6562 58.1875C30.4896 58 30.3125 57.8125 30.125 57.625C29.9583 57.4375 29.7917 57.2396 29.625 57.0312C29.4583 56.8229 29.3229 56.5729 29.2188 56.2812C29.1771 56.1562 29.125 56.0833 29.0625 56.0625C29 56.0417 28.9062 56.0417 28.7812 56.0625C28.8021 55.8333 28.7708 55.6354 28.6875 55.4688C28.625 55.3021 28.4688 55.1979 28.2188 55.1562C28.2188 54.8854 28.1771 54.6562 28.0938 54.4688C28.0104 54.2812 27.9062 54.1146 27.7812 53.9688C27.6771 53.8438 27.5521 53.7083 27.4062 53.5625C27.2812 53.4167 27.1771 53.2396 27.0938 53.0312C26.9062 52.9896 26.7188 52.9583 26.5312 52.9375C26.3646 52.9375 26.1771 52.9375 25.9688 52.9375C24.9688 52.9375 24 53.125 23.0625 53.5C22.9583 53.5417 22.8438 53.5938 22.7188 53.6562C22.6146 53.7188 22.5104 53.7708 22.4062 53.8125C22.3646 53.8125 22.3229 53.8125 22.2812 53.8125C22.2604 53.8333 22.2292 53.8438 22.1875 53.8438C22.0417 53.8438 21.9062 53.8125 21.7812 53.75C21.6562 53.7083 21.5208 53.6875 21.375 53.6875C21.3125 53.6875 21.2396 53.6979 21.1562 53.7188C21.0938 53.7604 21.0312 53.7917 20.9688 53.8125C20.6562 53.9167 20.3646 53.9792 20.0938 54C19.2396 54.1667 18.3333 54.2917 17.375 54.375C16.4375 54.4583 15.5729 54.6771 14.7812 55.0312C14.6146 55.1146 14.5104 55.2396 14.4688 55.4062C14.4271 55.5938 14.4167 55.7708 14.4375 55.9375C14.2083 56.1042 14.0312 56.3229 13.9062 56.5938C13.8021 56.8646 13.6979 57.1458 13.5938 57.4375C13.5104 57.75 13.4167 58.0521 13.3125 58.3438C13.2083 58.6354 13.0625 58.8854 12.875 59.0938C12.9375 59.2188 12.9688 59.3542 12.9688 59.5C12.9688 59.8125 12.8646 60.125 12.6562 60.4375C12.4479 60.75 12.2917 61.0521 12.1875 61.3438C12.0833 61.6354 12 61.9167 11.9375 62.1875C11.875 62.4792 11.7812 62.7396 11.6562 62.9688C11.5312 63.1979 11.3646 63.3854 11.1562 63.5312C10.9271 63.6771 10.6146 63.75 10.2188 63.75C9.84375 63.75 9.52083 63.6771 9.25 63.5312C8.97917 63.3854 8.76042 63.1979 8.59375 62.9688C8.42708 62.7396 8.29167 62.4688 8.1875 62.1562C8.08333 61.8438 8 61.5312 7.9375 61.2188C8.16667 60.7604 8.38542 60.3646 8.59375 60.0312C8.80208 59.6979 8.95833 59.2708 9.0625 58.75C9.4375 58.4792 9.71875 58.1458 9.90625 57.75C10.0729 57.375 10.1667 56.9583 10.1875 56.5C10.4167 56.3542 10.5833 56.1562 10.6875 55.9062C10.7708 55.6771 10.8229 55.4271 10.8438 55.1562C10.3438 55.1146 9.82292 55.0729 9.28125 55.0312C8.71875 54.9896 8.19792 54.8854 7.71875 54.7188C7.71875 54.6771 7.72917 54.6354 7.75 54.5938C7.75 54.5521 7.75 54.5104 7.75 54.4688C7.75 54.1979 7.6875 53.9479 7.5625 53.7188C7.4375 53.5104 7.375 53.2812 7.375 53.0312V52.7812C7.54167 52.6146 7.69792 52.4375 7.84375 52.25C7.96875 52.0833 8.10417 51.9271 8.25 51.7812C8.39583 51.6354 8.5625 51.5104 8.75 51.4062C8.9375 51.3229 9.17708 51.2812 9.46875 51.2812C9.86458 51.2812 10.25 51.3021 10.625 51.3438C11 51.4062 11.3854 51.4375 11.7812 51.4375C12.0521 51.4375 12.3333 51.4062 12.625 51.3438C13.0833 50.4062 13.4896 49.4583 13.8438 48.5C14.1979 47.5208 14.4688 46.5312 14.6562 45.5312C14.8021 45.3229 14.9375 45.0833 15.0625 44.8125C15.1875 44.5208 15.2812 44.2188 15.3438 43.9062C15.4271 43.5938 15.4792 43.2917 15.5 43C15.5417 42.6875 15.5625 42.4062 15.5625 42.1562C15.7917 41.8854 15.9479 41.5521 16.0312 41.1562C16.1354 40.7604 16.2188 40.3542 16.2812 39.9375C16.3438 39.5 16.4062 39.0729 16.4688 38.6562C16.5521 38.2396 16.6979 37.875 16.9062 37.5625V37.2812C16.9271 36.9688 16.8958 36.6875 16.8125 36.4375C16.9167 36.3958 16.9792 36.3021 17 36.1562C17.0208 36.0104 17.0625 35.8854 17.125 35.7812C17.1458 34.8229 17.25 33.8854 17.4375 32.9688C17.625 32.0312 17.7812 31.0938 17.9062 30.1562V30.0625C17.9062 29.9583 17.8646 29.9062 17.7812 29.9062C17.7188 29.8854 17.6875 29.8229 17.6875 29.7188C17.6875 29.5312 17.7083 29.2812 17.75 28.9688C17.8125 28.6562 17.8542 28.3958 17.875 28.1875C18 27.0625 18.0625 25.9479 18.0625 24.8438C18.0625 23.9062 18.0312 22.9792 17.9688 22.0625C17.9062 21.1458 17.8438 20.2188 17.7812 19.2812L18.0312 18.9062C18.1146 18.7812 18.1875 18.6562 18.25 18.5312C18.4583 18.4479 18.625 18.3646 18.75 18.2812C18.8958 18.1771 19.0833 18.125 19.3125 18.125C19.375 18.125 19.4271 18.1354 19.4688 18.1562C19.5104 18.1562 19.5521 18.1562 19.5938 18.1562C19.7188 18.2396 19.8125 18.3542 19.875 18.5C19.9583 18.6458 20.0312 18.7812 20.0938 18.9062C20.1771 19.0312 20.2812 19.1354 20.4062 19.2188C20.5312 19.3021 20.7083 19.3229 20.9375 19.2812C21.0417 19.8646 21.3333 20.1667 21.8125 20.1875C21.9167 20.4792 22.0417 20.7708 22.1875 21.0625C22.3542 21.3542 22.5729 21.5833 22.8438 21.75C22.8229 21.8333 22.8125 21.9479 22.8125 22.0938C22.8125 22.3854 22.875 22.6667 23 22.9375C23.1458 23.2083 23.3229 23.4583 23.5312 23.6875V23.75C23.5312 23.9792 23.4479 24.1354 23.2812 24.2188C23.4688 24.4271 23.6042 24.6771 23.6875 24.9688C23.7708 25.2604 23.8438 25.5625 23.9062 25.875C23.9688 26.1667 24.0417 26.4479 24.125 26.7188C24.2292 26.9896 24.3958 27.1979 24.625 27.3438V27.4375C24.625 27.5417 24.5833 27.6042 24.5 27.625C24.4375 27.6458 24.4062 27.7083 24.4062 27.8125C24.7812 28.5 25.0417 29.25 25.1875 30.0625C25.3333 30.875 25.5208 31.6562 25.75 32.4062C25.8333 32.4896 25.9271 32.5417 26.0312 32.5625C26.1562 32.5833 26.25 32.6354 26.3125 32.7188C26.1875 32.8021 26.125 32.9479 26.125 33.1562C26.125 33.3646 26.0729 33.5208 25.9688 33.625C26.1354 33.7708 26.2083 33.9896 26.1875 34.2812C26.1875 34.5521 26.2708 34.75 26.4375 34.875V35C26.4375 35.0833 26.4167 35.1562 26.375 35.2188C26.3333 35.2604 26.3125 35.3229 26.3125 35.4062V35.5312C26.4792 36.2604 26.6042 36.9896 26.6875 37.7188C26.7917 38.4479 26.8958 39.1771 27 39.9062C27.1042 40.6354 27.2188 41.3646 27.3438 42.0938C27.4688 42.8021 27.6458 43.5 27.875 44.1875C27.8958 44.2083 27.9062 44.2396 27.9062 44.2812C27.9062 44.3854 27.8646 44.4479 27.7812 44.4688C27.6979 44.4688 27.6562 44.5208 27.6562 44.625C27.6562 44.7292 27.6875 44.8542 27.75 45C27.8333 45.125 27.9167 45.2292 28 45.3125C27.9792 45.3958 27.9688 45.5208 27.9688 45.6875C27.9688 46 28.0208 46.3021 28.125 46.5938C28.25 46.8854 28.375 47.1771 28.5 47.4688C28.6458 47.7396 28.7708 48.0312 28.875 48.3438C28.9792 48.6562 29.0208 48.9896 29 49.3438C29.125 49.5312 29.2812 49.6875 29.4688 49.8125C29.6771 49.9375 29.8854 50.0521 30.0938 50.1562C30.3021 50.2604 30.4896 50.3854 30.6562 50.5312C30.8438 50.6771 30.9688 50.875 31.0312 51.125C30.8646 51.2708 30.75 51.4479 30.6875 51.6562C30.625 51.8854 30.5104 52.0833 30.3438 52.25C30.4896 52.6042 30.6562 52.9271 30.8438 53.2188C31.0521 53.5312 31.2604 53.8333 31.4688 54.125L32.125 55C32.3542 55.2917 32.5521 55.6042 32.7188 55.9375C32.9479 55.9375 33.1146 56 33.2188 56.125C33.3229 56.25 33.4896 56.3021 33.7188 56.2812C33.8021 56.4479 33.8333 56.6354 33.8125 56.8438C34.2292 56.6979 34.6458 56.625 35.0625 56.625C35.2917 56.625 35.5 56.6354 35.6875 56.6562C35.8958 56.6771 36.1042 56.6875 36.3125 56.6875C36.5625 56.6875 36.7812 56.6562 36.9688 56.5938C37.0521 56.7188 37.1146 56.8542 37.1562 57C37.1979 57.1667 37.2292 57.3333 37.25 57.5L37.3438 58C37.3854 58.1667 37.4479 58.3125 37.5312 58.4375ZM25.75 49.7812C25.4583 48.3438 25.1562 46.9167 24.8438 45.5C24.5521 44.0625 24.2917 42.6146 24.0625 41.1562C23.9375 40.3854 23.8438 39.6146 23.7812 38.8438C23.7188 38.0729 23.6354 37.3125 23.5312 36.5625C23.4479 35.7917 23.3229 35.0312 23.1562 34.2812C23.0104 33.5312 22.7917 32.7917 22.5 32.0625V32C22.5 31.9375 22.5208 31.8854 22.5625 31.8438C22.6042 31.8021 22.625 31.7292 22.625 31.625V31.5C22.3542 31.3125 22.1667 31.0521 22.0625 30.7188C21.9583 30.3646 21.8646 30 21.7812 29.625C21.7188 29.2292 21.625 28.8542 21.5 28.5C21.3958 28.125 21.2083 27.8125 20.9375 27.5625C20.8333 28.7708 20.7188 29.9792 20.5938 31.1875C20.4896 32.375 20.4167 33.5729 20.375 34.7812C20.1667 34.9062 20.0312 35.1146 19.9688 35.4062C19.9062 35.6979 19.875 35.9583 19.875 36.1875C19.875 36.3542 19.8854 36.5312 19.9062 36.7188C19.9271 36.8854 19.9688 37.0625 20.0312 37.25C19.6562 38.1875 19.3854 39.1562 19.2188 40.1562C19.0521 41.1354 18.8646 42.1146 18.6562 43.0938C18.6354 43.1562 18.5938 43.3021 18.5312 43.5312C18.4896 43.7396 18.4375 43.9583 18.375 44.1875C18.3125 44.4167 18.2604 44.625 18.2188 44.8125C18.1771 44.9792 18.1562 45.0729 18.1562 45.0938C18.1354 45.2396 18.125 45.3854 18.125 45.5312C18.1458 45.6771 18.1562 45.8229 18.1562 45.9688L17.6875 46.4375C17.6042 47.2292 17.4479 48 17.2188 48.75C17.0104 49.4792 16.7917 50.2292 16.5625 51C16.7083 51.0208 16.8438 51.0312 16.9688 51.0312C17.1146 51.0521 17.2604 51.0625 17.4062 51.0625C18.0729 51.0625 18.7396 51.0208 19.4062 50.9375C20.0938 50.8333 20.7708 50.7396 21.4375 50.6562C21.6667 50.6146 21.9062 50.5833 22.1562 50.5625C22.4062 50.5208 22.6458 50.5 22.875 50.5C22.9792 50.4792 23.1042 50.4792 23.25 50.5C23.3958 50.5 23.5208 50.4896 23.625 50.4688C23.7917 50.4271 23.8958 50.3646 23.9375 50.2812C24 50.1771 24.1146 50.1146 24.2812 50.0938C24.4062 50.1562 24.5521 50.1875 24.7188 50.1875C24.9062 50.1875 25.0833 50.1458 25.25 50.0625C25.4167 49.9792 25.5833 49.8854 25.75 49.7812ZM59.4062 38.75C59.1146 38.9583 58.7812 39.0938 58.4062 39.1562C58.0312 39.1979 57.6667 39.2188 57.3125 39.2188C56.9792 39.2188 56.6562 39.2083 56.3438 39.1875C56.0312 39.1667 55.7188 39.1562 55.4062 39.1562C55.1354 39.1562 54.8542 39.1771 54.5625 39.2188C54.2917 39.2604 54.0417 39.3646 53.8125 39.5312C53.6458 39.4896 53.4792 39.4583 53.3125 39.4375C53.1667 39.4167 53.0104 39.4062 52.8438 39.4062H52.5625C52.5208 39.5938 52.4271 39.7188 52.2812 39.7812C52.1354 39.8229 51.9688 39.8438 51.7812 39.8438C51.6354 39.8438 51.4896 39.8333 51.3438 39.8125C51.1979 39.7917 51.0521 39.7812 50.9062 39.7812C50.6146 39.8854 50.3229 39.9583 50.0312 40C49.7604 40.0208 49.4792 40.0938 49.1875 40.2188C48.7292 41.1979 48.3229 42.2188 47.9688 43.2812C47.6354 44.3229 47.1979 45.3125 46.6562 46.25V46.9375C45.9688 48.4792 45.4375 50.0625 45.0625 51.6875C44.6875 53.3333 44.4271 54.9896 44.2812 56.6562C44.6354 56.9062 44.9688 57.1771 45.2812 57.4688C45.5938 57.7604 45.8542 58.1042 46.0625 58.5C45.875 58.7917 45.6354 59.0104 45.3438 59.1562C45.0521 59.3021 44.7292 59.375 44.375 59.375C44.0208 59.375 43.6562 59.3021 43.2812 59.1562C42.9271 59.0312 42.6042 58.8438 42.3125 58.5938C42.0208 58.3438 41.7812 58.0521 41.5938 57.7188C41.4062 57.3854 41.3125 57.0312 41.3125 56.6562C41.3125 56.3646 41.375 56.0729 41.5 55.7812C41.2708 55.2604 41.1562 54.7188 41.1562 54.1562C41.1562 53.4688 41.3021 52.8125 41.5938 52.1875C41.9062 51.5625 42.25 50.9688 42.625 50.4062C42.5833 50.3229 42.5521 50.25 42.5312 50.1875C42.5312 50.1042 42.5312 50.0312 42.5312 49.9688C42.5312 49.6146 42.625 49.2917 42.8125 49C43.0208 48.6875 43.1771 48.375 43.2812 48.0625C43.3646 47.7708 43.3958 47.4896 43.375 47.2188C43.3542 46.9271 43.3958 46.6458 43.5 46.375C43.5833 46.1667 43.6979 46 43.8438 45.875C43.9896 45.7292 44.1042 45.5625 44.1875 45.375C44.25 45.2083 44.2812 45.0417 44.2812 44.875C44.3021 44.6875 44.3438 44.5104 44.4062 44.3438C44.4479 44.1979 44.5208 44.0729 44.625 43.9688C44.7292 43.8438 44.8021 43.7083 44.8438 43.5625C45.0729 43.0208 45.2396 42.4688 45.3438 41.9062C45.4688 41.3229 45.6771 40.7604 45.9688 40.2188C45.8646 40.2188 45.75 40.2188 45.625 40.2188C45.5208 40.1979 45.4167 40.1875 45.3125 40.1875C45.1458 40.1875 45.0104 40.2188 44.9062 40.2812C44.8229 40.3438 44.8021 40.4688 44.8438 40.6562C44.6771 40.5938 44.5104 40.5312 44.3438 40.4688C44.1979 40.3854 44.0208 40.3333 43.8125 40.3125C43.625 40.4167 43.4479 40.5312 43.2812 40.6562C43.1146 40.7604 42.9271 40.8646 42.7188 40.9688C42.6146 40.8854 42.4896 40.8438 42.3438 40.8438C42.2188 40.8229 42.0938 40.8125 41.9688 40.8125C41.7604 40.8125 41.5 40.8438 41.1875 40.9062C40.8958 40.9688 40.6979 41.1146 40.5938 41.3438C40.3854 41.2812 40.1771 41.2396 39.9688 41.2188C39.7604 41.1979 39.5417 41.1875 39.3125 41.1875C38.7292 41.1875 38.1458 41.2396 37.5625 41.3438C36.9792 41.4271 36.3958 41.4688 35.8125 41.4688C35.4583 41.4688 35.1042 41.4375 34.75 41.375C34.3958 41.2917 34.0625 41.1562 33.75 40.9688C33.7708 40.8646 33.7812 40.7708 33.7812 40.6875V40.4062C33.7812 40.2396 33.7604 40.1042 33.7188 40C33.6771 39.8958 33.6146 39.7708 33.5312 39.625C33.8021 39.2708 34.0208 38.9479 34.1875 38.6562C34.375 38.3438 34.7188 38.1146 35.2188 37.9688C35.4688 37.9062 35.7188 37.875 35.9688 37.875H36.75C37 37.875 37.2188 37.8646 37.4062 37.8438C37.5938 37.8021 37.7917 37.7292 38 37.625H38.0625C38.1458 37.625 38.1875 37.6667 38.1875 37.75C38.2083 37.8125 38.2604 37.8438 38.3438 37.8438C38.4271 37.8438 38.5208 37.8333 38.625 37.8125C38.7292 37.7917 38.8229 37.7708 38.9062 37.75C39.0729 37.7292 39.2396 37.7188 39.4062 37.7188C39.5938 37.6979 39.7812 37.6875 39.9688 37.6875C40.1979 37.6875 40.4167 37.6979 40.625 37.7188C40.8542 37.7188 41.0938 37.7188 41.3438 37.7188C41.8021 37.7188 42.2604 37.6979 42.7188 37.6562C43.1771 37.5938 43.625 37.4792 44.0625 37.3125C44.3958 37.375 44.7292 37.4062 45.0625 37.4062C45.4167 37.4062 45.75 37.3854 46.0625 37.3438C46.3958 37.2812 46.7396 37.2292 47.0938 37.1875C47.4896 36.6458 47.8021 36.0625 48.0312 35.4375C48.2604 34.8125 48.4792 34.1875 48.6875 33.5625C48.9167 32.9167 49.1562 32.2917 49.4062 31.6875C49.6562 31.0625 50 30.5 50.4375 30C50.6458 29.25 50.9062 28.5208 51.2188 27.8125C51.5521 27.1042 51.9688 26.4479 52.4688 25.8438C52.5729 25.2604 52.7396 24.7604 52.9688 24.3438C53.1979 23.9062 53.5104 23.4792 53.9062 23.0625C53.9271 22.8958 53.8958 22.7812 53.8125 22.7188C53.7292 22.6562 53.6875 22.5521 53.6875 22.4062C52.8125 22.6354 51.9062 22.8854 50.9688 23.1562C50.0521 23.4062 49.1354 23.7188 48.2188 24.0938C47.3229 24.4479 46.4479 24.8542 45.5938 25.3125C44.7604 25.7708 43.9896 26.2917 43.2812 26.875C42.9688 26.9375 42.6979 27.0417 42.4688 27.1875C42.2396 27.3333 42.0104 27.4896 41.7812 27.6562C41.5729 27.8021 41.3438 27.9479 41.0938 28.0938C40.8646 28.2188 40.5833 28.2917 40.25 28.3125C40.125 28.5625 39.9479 28.7604 39.7188 28.9062C39.4896 29.0521 39.3333 29.2708 39.25 29.5625C38.7292 29.8333 38.2083 30.0938 37.6875 30.3438C37.1667 30.5938 36.6771 30.8854 36.2188 31.2188C35.7396 31.1354 35.2812 30.9375 34.8438 30.625C34.4062 30.3125 34.1875 29.8854 34.1875 29.3438C34.1875 29.0729 34.25 28.8229 34.375 28.5938C34.5 28.3646 34.6667 28.1667 34.875 28C35.375 27.875 35.8542 27.6562 36.3125 27.3438C36.7917 27.0312 37.2604 26.75 37.7188 26.5C37.8854 26.3958 38.0521 26.3021 38.2188 26.2188C38.3854 26.1354 38.5729 26.0625 38.7812 26C38.8438 25.9583 38.9167 25.9375 39 25.9375C39.0833 25.9167 39.1667 25.8854 39.25 25.8438C39.3542 25.8021 39.4688 25.7292 39.5938 25.625C39.7396 25.5208 39.8646 25.4271 39.9688 25.3438C40.3854 25.0521 40.8229 24.7917 41.2812 24.5625C41.7396 24.3125 42.2396 24.1875 42.7812 24.1875H42.8438C42.9062 24.0833 42.9896 24 43.0938 23.9375L43.4375 23.75C43.5625 23.6875 43.6667 23.6146 43.75 23.5312C43.8542 23.4479 43.9271 23.3229 43.9688 23.1562H44.0625C44.1667 23.1562 44.25 23.1354 44.3125 23.0938C44.3958 23.0521 44.4688 23.0104 44.5312 22.9688C44.5938 22.9062 44.6667 22.8646 44.75 22.8438C44.8333 22.8229 44.9375 22.8229 45.0625 22.8438C45.2292 22.6771 45.4167 22.5417 45.625 22.4375C45.8333 22.3333 46.0312 22.2292 46.2188 22.125C46.4271 22.0208 46.625 21.9167 46.8125 21.8125C47.0208 21.6875 47.1875 21.5417 47.3125 21.375C47.375 21.4167 47.4688 21.4375 47.5938 21.4375C47.7188 21.4375 47.8542 21.4271 48 21.4062C48.1458 21.3854 48.2917 21.375 48.4375 21.375C48.5417 21.375 48.6042 21.3229 48.625 21.2188C48.6458 21.1146 48.6562 21.0104 48.6562 20.9062C49.2396 20.9062 49.7188 20.7292 50.0938 20.375C50.6146 20.3542 51.125 20.2708 51.625 20.125C52.125 19.9583 52.6146 19.7812 53.0938 19.5938C53.5729 19.4062 54.0521 19.2396 54.5312 19.0938C55.0312 18.9271 55.5417 18.8333 56.0625 18.8125C56.125 19 56.2292 19.1458 56.375 19.25C56.5417 19.3333 56.7292 19.4062 56.9375 19.4688L57.5625 19.6562C57.7708 19.7188 57.9375 19.8125 58.0625 19.9375C58.0208 20.0417 57.9896 20.1771 57.9688 20.3438C57.9688 20.4896 57.9479 20.6458 57.9062 20.8125C57.8854 20.9792 57.8438 21.125 57.7812 21.25C57.7396 21.375 57.6562 21.4583 57.5312 21.5C57.3646 22.1458 57.1458 22.7812 56.875 23.4062C56.6042 24.0104 56.25 24.5729 55.8125 25.0938V25.625C55.4167 26.1667 55.0625 26.7292 54.75 27.3125C54.4583 27.875 54.1667 28.4583 53.875 29.0625L53.0312 30.8438C52.7604 31.4271 52.4583 32 52.125 32.5625V33.25C51.9792 33.3542 51.8646 33.4896 51.7812 33.6562C51.7188 33.8021 51.6562 33.9583 51.5938 34.125C51.5312 34.2917 51.4583 34.4479 51.375 34.5938C51.2917 34.7396 51.1667 34.8542 51 34.9375V35.0312C51 35.3854 50.9479 35.6875 50.8438 35.9375C50.7396 36.1875 50.6042 36.4479 50.4375 36.7188C50.5208 36.8854 50.6354 36.9896 50.7812 37.0312C50.9271 37.0729 51.0729 37.0938 51.2188 37.0938C51.3854 37.0938 51.5417 37.1042 51.6875 37.125C51.8542 37.125 52 37.1875 52.125 37.3125C52.5 37.1667 52.9167 37.0938 53.375 37.0938C53.7917 37.0938 54.2083 37.1354 54.625 37.2188C55.0417 37.2812 55.4583 37.3125 55.875 37.3125C56.1458 37.3125 56.3125 37.2708 56.375 37.1875C56.4375 37.1042 56.5521 36.9896 56.7188 36.8438C56.9688 36.8854 57.1979 36.9583 57.4062 37.0625C57.6354 37.1458 57.8542 37.25 58.0625 37.375C58.2917 37.4792 58.5104 37.5833 58.7188 37.6875C58.9271 37.7708 59.1562 37.8229 59.4062 37.8438V38.75ZM85.0625 49.8438C85.0625 50.0521 85.0521 50.2083 85.0312 50.3125C84.9271 50.3542 84.8438 50.4167 84.7812 50.5C84.7188 50.5625 84.6146 50.5833 84.4688 50.5625C84.4271 50.875 84.3229 51.1354 84.1562 51.3438C83.9896 51.5521 83.8125 51.7396 83.625 51.9062C83.4583 52.0938 83.2917 52.2812 83.125 52.4688C82.9583 52.6771 82.8542 52.9375 82.8125 53.25C82.5 53.4167 82.1875 53.6354 81.875 53.9062C81.5833 54.1979 81.3229 54.3958 81.0938 54.5C80.9271 54.5833 80.75 54.6458 80.5625 54.6875C80.375 54.75 80.1875 54.8229 80 54.9062C79.3958 55.1771 78.7708 55.4583 78.125 55.75C77.5 56.0417 76.8438 56.1875 76.1562 56.1875H75.9375C75.8542 56.2708 75.75 56.3229 75.625 56.3438C75.5 56.3854 75.375 56.4167 75.25 56.4375C75.125 56.4583 75 56.4896 74.875 56.5312C74.75 56.5729 74.6562 56.6354 74.5938 56.7188C74.3646 56.6354 74.1146 56.5938 73.8438 56.5938H73.625C73.2708 56.6771 72.9375 56.7396 72.625 56.7812C72.3125 56.8229 71.9792 56.8438 71.625 56.8438C71 56.8438 70.375 56.8021 69.75 56.7188C69.125 56.6354 68.5 56.5625 67.875 56.5C67.4792 56.1875 67.1562 55.7917 66.9062 55.3125C66.6562 54.8542 66.5312 54.3646 66.5312 53.8438C66.5312 53.4479 66.6146 53.0729 66.7812 52.7188C66.9479 52.3854 67.1667 52.0833 67.4375 51.8125H67.5312C67.7188 51.8125 67.9062 51.7708 68.0938 51.6875C68.3021 51.6042 68.5 51.5625 68.6875 51.5625C68.8958 51.5625 69.0625 51.6458 69.1875 51.8125C69.3333 51.9792 69.4375 52.1771 69.5 52.4062C69.5833 52.6354 69.6354 52.8646 69.6562 53.0938C69.6771 53.3438 69.6875 53.5417 69.6875 53.6875C69.9167 53.7917 70.1562 53.8542 70.4062 53.875C70.6771 53.8958 70.9479 53.9062 71.2188 53.9062C71.4896 53.9062 71.7917 53.8854 72.125 53.8438C72.4583 53.8229 72.7917 53.7708 73.125 53.6875C73.4792 53.625 73.8125 53.5417 74.125 53.4375C74.4583 53.3333 74.7396 53.1979 74.9688 53.0312C76.1146 52.9271 77.125 52.6667 78 52.25C78.875 51.8333 79.8021 51.3438 80.7812 50.7812C80.8229 50.5521 80.9062 50.375 81.0312 50.25C81.1771 50.1042 81.25 49.8958 81.25 49.625C81.25 49.5833 81.2396 49.5417 81.2188 49.5C81.2188 49.4375 81.2188 49.3854 81.2188 49.3438C80.8021 48.8229 80.3646 48.3646 79.9062 47.9688C79.4688 47.5729 78.8958 47.3125 78.1875 47.1875C78.1042 47 77.9688 46.8646 77.7812 46.7812C77.5938 46.6771 77.3958 46.5833 77.1875 46.5C76.9792 46.4167 76.7812 46.3333 76.5938 46.25C76.4062 46.1458 76.2708 45.9792 76.1875 45.75C75.625 45.6458 75.0417 45.5208 74.4375 45.375C73.8542 45.2083 73.3542 44.9167 72.9375 44.5C72.6042 44.4792 72.2812 44.4167 71.9688 44.3125C71.6771 44.1875 71.3854 44.0729 71.0938 43.9688C70.8021 43.8438 70.5 43.7396 70.1875 43.6562C69.875 43.5521 69.5521 43.5 69.2188 43.5C69.1354 43.3542 69.0208 43.2396 68.875 43.1562C68.7292 43.0729 68.5625 43 68.375 42.9375C68.2083 42.875 68.0417 42.8125 67.875 42.75C67.7292 42.6667 67.6146 42.5521 67.5312 42.4062C67.4479 42.4271 67.3854 42.4688 67.3438 42.5312C67.3021 42.5938 67.2292 42.625 67.125 42.625H67C66.9583 42.5 66.875 42.4167 66.75 42.375C66.625 42.3125 66.5521 42.1979 66.5312 42.0312C66.1562 42.0104 65.8125 41.9375 65.5 41.8125C65.2083 41.6875 64.9271 41.5521 64.6562 41.4062C64.4062 41.2396 64.1458 41.0833 63.875 40.9375C63.6042 40.7917 63.3021 40.6771 62.9688 40.5938C62.7604 40.4271 62.5625 40.25 62.375 40.0625C62.2083 39.8542 61.9896 39.75 61.7188 39.75C61.6562 39.75 61.5417 39.7708 61.375 39.8125C61.3333 39.4375 61.1771 39.1771 60.9062 39.0312C60.6354 38.8646 60.3438 38.7188 60.0312 38.5938C59.8229 38.0521 59.5417 37.5729 59.1875 37.1562C58.8333 36.7396 58.4479 36.3542 58.0312 36C58.0729 35.875 58.0938 35.7812 58.0938 35.7188C58.0938 35.5104 58.0417 35.3333 57.9375 35.1875C57.8333 35.0208 57.7188 34.8854 57.5938 34.7812C57.3021 33.8438 57.1562 32.9271 57.1562 32.0312C57.1562 30.7812 57.4375 29.625 58 28.5625C58.5417 27.4792 59.4062 26.6667 60.5938 26.125C60.6146 25.9583 60.6667 25.8125 60.75 25.6875C60.8542 25.5625 60.9167 25.4167 60.9375 25.25C61.125 25.25 61.2708 25.2083 61.375 25.125C61.4792 25.0417 61.5729 24.9583 61.6562 24.875C61.7604 24.7708 61.8646 24.6771 61.9688 24.5938C62.0729 24.5104 62.2083 24.4583 62.375 24.4375C63.1667 23.75 64.0104 23.1979 64.9062 22.7812C65.8021 22.3438 66.7188 21.8958 67.6562 21.4375C67.8438 21.3542 68 21.1979 68.125 20.9688H68.3125C68.5208 20.9688 68.6771 20.9271 68.7812 20.8438C68.9062 20.7396 69.0833 20.7083 69.3125 20.75C69.3958 20.625 69.5 20.5417 69.625 20.5C69.7708 20.4583 69.9062 20.4271 70.0312 20.4062C70.1771 20.3646 70.3125 20.3125 70.4375 20.25C70.5625 20.1875 70.6458 20.0938 70.6875 19.9688H70.9062C71.2604 19.9688 71.6042 19.9167 71.9375 19.8125C72.2708 19.6875 72.6042 19.5521 72.9375 19.4062H73.1562C73.5729 19.4062 73.9583 19.3333 74.3125 19.1875C74.6875 19.0208 75.0833 18.9062 75.5 18.8438C75.6667 18.8021 75.8333 18.7917 76 18.8125C76.1667 18.8333 76.3333 18.8438 76.5 18.8438C76.6042 18.8438 76.7292 18.8333 76.875 18.8125C77.0208 18.7917 77.125 18.7292 77.1875 18.625H77.25C77.375 18.625 77.4479 18.6667 77.4688 18.75C77.4896 18.8333 77.5521 18.875 77.6562 18.875C77.8021 18.875 77.9479 18.8542 78.0938 18.8125C78.2396 18.7708 78.3854 18.75 78.5312 18.75C79.1562 18.75 79.7708 18.8125 80.375 18.9375C81 19.0625 81.6146 19.1771 82.2188 19.2812C82.2604 19.5312 82.3646 19.7083 82.5312 19.8125C82.7188 19.9167 82.9167 20.0104 83.125 20.0938V20.2188C83.125 20.3854 83.1667 20.5208 83.25 20.625C83.1667 20.9167 83.0208 21.1354 82.8125 21.2812C82.6042 21.4271 82.375 21.5521 82.125 21.6562C82.2292 21.7396 82.2917 21.8542 82.3125 22C82.3333 22.1458 82.3438 22.2812 82.3438 22.4062V22.7812L82.1875 22.75C81.8542 22.75 81.6875 22.9062 81.6875 23.2188C81.4167 23.0521 81.1146 22.9479 80.7812 22.9062C80.4688 22.8646 80.1562 22.8438 79.8438 22.8438C79.4271 22.8438 78.9896 22.8646 78.5312 22.9062C78.0729 22.9271 77.625 22.9167 77.1875 22.875C77.0208 23.0833 76.8125 23.2396 76.5625 23.3438C76.3125 23.4271 76.0625 23.4688 75.8125 23.4688C75.5417 23.4688 75.2812 23.4167 75.0312 23.3125C74.7812 23.1875 74.6042 23.0104 74.5 22.7812C74.3958 22.7396 74.3021 22.7188 74.2188 22.7188H73.9375C73.6042 22.7188 73.2708 22.7604 72.9375 22.8438C72.625 22.9062 72.3021 22.9896 71.9688 23.0938C71.6354 23.1771 71.3021 23.2708 70.9688 23.375C70.6562 23.4583 70.3333 23.5104 70 23.5312C69.875 23.6979 69.7083 23.8125 69.5 23.875C69.2917 23.9375 69.125 24.0521 69 24.2188C68.5625 24.3021 68.1667 24.4479 67.8125 24.6562C67.4583 24.8438 67.1146 25.0521 66.7812 25.2812L65.8125 25.9375C65.5 26.1458 65.1458 26.3229 64.75 26.4688C64.4583 26.7812 64.1875 27.0312 63.9375 27.2188C63.6875 27.4062 63.3646 27.5729 62.9688 27.7188C62.7188 27.8021 62.5729 27.9271 62.5312 28.0938C62.5104 28.2604 62.4271 28.4271 62.2812 28.5938C62.1562 28.7396 62 28.8542 61.8125 28.9375C61.6458 29 61.5 29.1146 61.375 29.2812C61.2708 29.4271 61.1875 29.6042 61.125 29.8125C61.0833 30 61.0312 30.1875 60.9688 30.375C60.9062 30.5625 60.8333 30.75 60.75 30.9375C60.6667 31.1042 60.5417 31.25 60.375 31.375C60.375 31.4583 60.3646 31.5417 60.3438 31.625C60.3438 31.7083 60.3438 31.7812 60.3438 31.8438C60.3438 32.1354 60.375 32.4375 60.4375 32.75C60.5208 33.0417 60.5729 33.3333 60.5938 33.625C61.0104 34.3542 61.5 35.0208 62.0625 35.625C62.625 36.2083 63.2292 36.75 63.875 37.25C64.5208 37.75 65.1875 38.2188 65.875 38.6562C66.5833 39.0938 67.2812 39.5208 67.9688 39.9375C68.2188 39.9167 68.4479 39.9479 68.6562 40.0312C68.8646 40.0938 69.0833 40.1354 69.3125 40.1562C69.5625 40.3438 69.8542 40.4896 70.1875 40.5938L71.1875 40.9062C71.5208 41.0104 71.8438 41.1354 72.1562 41.2812C72.4688 41.4062 72.7292 41.5833 72.9375 41.8125C73.0417 41.8333 73.1354 41.8646 73.2188 41.9062C73.3021 41.9271 73.3958 41.9375 73.5 41.9375C73.625 41.9375 73.6979 41.8958 73.7188 41.8125C74.6562 42.1667 75.5729 42.5625 76.4688 43C77.3646 43.4167 78.3125 43.7396 79.3125 43.9688C79.7083 44.3021 80.1458 44.5938 80.625 44.8438C81.1042 45.0938 81.5833 45.3542 82.0625 45.625C82.5417 45.875 83 46.1562 83.4375 46.4688C83.875 46.7604 84.2604 47.1146 84.5938 47.5312C84.6354 47.9271 84.7188 48.3125 84.8438 48.6875C84.9896 49.0417 85.0625 49.4271 85.0625 49.8438Z" fill="white"/>
</svg>
